<?xml version="1.0" encoding="UTF-8"?>
<svg version="1.1" xmlns="http://www.w3.org/2000/svg" width="256" height="256">
<path d="M0 0 C2.99696017 -0.11849253 5.34448012 0.02512588 8.13525391 1.16259766 C10.48793775 4.23131571 10.20965045 7.32642456 10.10009766 11.02978516 C10.08688477 11.81627441 10.07367188 12.60276367 10.06005859 13.41308594 C9.51203095 32.0569864 7.21483587 55.53976105 -7.08740234 69.09228516 C-15.40542311 75.73714082 -25.86260803 78.09116828 -36.33740234 77.15478516 C-41.42957454 76.12241691 -46.40897888 74.79759298 -51.33740234 73.15478516 C-60.07524332 94.53336941 -63.48920081 116.01568022 -63.82055664 139.08300781 C-63.84545166 140.07091309 -63.87034668 141.05881836 -63.89599609 142.07666016 C-63.90945068 142.9593457 -63.92290527 143.84203125 -63.93676758 144.75146484 C-64.41103638 147.59649964 -65.45833985 149.0074632 -67.33740234 151.15478516 C-69.71240234 150.84228516 -69.71240234 150.84228516 -72.33740234 150.15478516 C-74.49252716 146.92209793 -74.63455157 145.75423893 -74.82958984 141.99072266 C-74.89251221 140.95915039 -74.95543457 139.92757812 -75.02026367 138.86474609 C-75.08366943 137.76420898 -75.1470752 136.66367188 -75.21240234 135.52978516 C-76.47588989 117.33868747 -79.82157543 99.47784724 -90.33740234 84.15478516 C-91.08183594 84.66138672 -91.08183594 84.66138672 -91.84130859 85.17822266 C-92.52064453 85.62423828 -93.19998047 86.07025391 -93.89990234 86.52978516 C-94.56119141 86.97064453 -95.22248047 87.41150391 -95.90380859 87.86572266 C-105.22961993 92.80555852 -117.89447034 92.69503784 -127.99755859 90.27978516 C-138.13726271 86.38285715 -143.85438402 79.85497464 -148.33740234 70.15478516 C-154.06606266 57.23963341 -155.77401453 43.15411877 -156.33740234 29.15478516 C-156.39025391 28.18025391 -156.44310547 27.20572266 -156.49755859 26.20166016 C-156.52720703 25.31994141 -156.55685547 24.43822266 -156.58740234 23.52978516 C-156.61318359 22.77439453 -156.63896484 22.01900391 -156.66552734 21.24072266 C-156.21117472 18.35233812 -155.51080218 17.12980164 -153.33740234 15.15478516 C-133.01730175 12.19091387 -108.15666465 17.29405929 -91.28271484 28.52197266 C-84.46274161 33.7028107 -81.12246619 41.68068401 -79.61865234 49.95166016 C-78.68107975 57.29597881 -79.66494508 63.25532876 -81.77880859 70.35791016 C-82.98709691 76.40780133 -80.13538394 80.87792465 -77.39990234 86.09228516 C-74.98917644 90.71104624 -72.83690942 95.13810966 -71.33740234 100.15478516 C-71.00740234 100.15478516 -70.67740234 100.15478516 -70.33740234 100.15478516 C-70.21212158 99.61176758 -70.08684082 99.06875 -69.95776367 98.50927734 C-65.50509263 79.42236276 -65.50509263 79.42236276 -61.15771484 70.46728516 C-59.70308488 66.36661402 -61.58168834 63.4244064 -63.33740234 59.65478516 C-67.81034949 50.05110452 -68.09266252 37.18789382 -64.83740234 27.09228516 C-59.51185823 15.16452539 -50.0100716 9.770239 -38.33740234 5.15478516 C-26.2181205 0.90240556 -12.71718766 0.84214508 0 0 Z " fill="#030301" transform="translate(197.33740234375,59.84521484375)"/>
<path d="M0 0 C0.48756912 17.78724371 0.34883742 36.76063242 -11.1875 51.5 C-17.6422369 58.10612732 -24.78430186 59.32983878 -33.6875 59.4375 C-34.40019043 59.4478125 -35.11288086 59.458125 -35.84716797 59.46875 C-40.89463618 59.38433241 -44.47682255 58.23491206 -49 56 C-45.15340515 45.1174226 -35.41922341 36.46797367 -25.9375 30.3125 C-22.72302874 28.32224599 -22.72302874 28.32224599 -22.5625 25.1875 C-22.706875 24.465625 -22.85125 23.74375 -23 23 C-27.80575899 23.47498781 -30.33964075 24.6293091 -34 27.75 C-34.86496094 28.4821875 -35.72992188 29.214375 -36.62109375 29.96875 C-37.40613281 30.6390625 -38.19117188 31.309375 -39 32 C-40.5159375 33.11375 -40.5159375 33.11375 -42.0625 34.25 C-46.8834809 38.2373819 -50.37097582 43.94355964 -54 49 C-58.16966954 45.12734802 -58.81870798 41.25397387 -59.26171875 35.74609375 C-59.53453104 27.02550792 -58.93957827 20.58090497 -53.15234375 13.8515625 C-39.35605437 0.38077541 -18.29443943 -0.7383406 0 0 Z " fill="#FACE44" transform="translate(198,69)"/>
<path d="M0 0 C15.90299036 -0.5021997 31.8448638 -0.18892177 46 8 C47.12341797 8.64582031 47.12341797 8.64582031 48.26953125 9.3046875 C53.87972326 12.9893034 57.18952696 17.51952174 59 24 C59.59498076 30.73850297 59.53885509 37.37787767 58 44 C54.24313456 42.74771152 53.44191765 41.06895618 51 38 C38.83446453 27.41449743 38.83446453 27.41449743 24 23 C23.43464526 25.323269 23.43464526 25.323269 24 28 C26.25627891 29.63364457 28.29800093 30.8604061 30.75 32.125 C39.28463537 36.87155697 49.95578528 43.21628102 53 53 C43.20495985 58.87702409 33.74813924 60.88909094 22.3046875 58.41796875 C14.09489025 55.28565934 8.79842171 48.33406583 5.1875 40.5625 C0.28302915 27.52257243 -0.50720635 13.78849846 0 0 Z " fill="#FACE44" transform="translate(50,84)"/>
</svg>
